# xmcd
#
# Track frame offsets: 
#        150
#        15564
#        40202
#        62465
#        82869
#        106995
#        123254
#        147827
#        162303
#        185498
#        200771
#        223165
#        238844
#        259825
#        275642
#        290853
#
# Disc length: 4321 seconds
#
# Revision: 0
# Processed by: cddbd v1.5.2PL0 Copyright (c) Steve Scherf et al.
# Submitted via: ExactAudioCopy v0.95a5
#
DISCID=f210df10
DTITLE=BB King - Blue on the Bayou
DYEAR=1900
DGENRE=Blues
TTITLE0=Blues Boys Tune
TTITLE1=Bad Case of Love
TTITLE2=I'll Survive
TTITLE3=Mean Ole' World
TTITLE4=Blues Man
TTITLE5=Broken Promise
TTITLE6=Darlin What Happend
TTITLE7=Shake It Up and Go
TTITLE8=Blues We Like
TTITLE9=Good Man Gone Bad
TTITLE10=If I Lost You
TTITLE11=Tell Me Babe
TTITLE12=I Got Some Outside Help
TTITLE13=I Don't Need
TTITLE14=Blues in C
TTITLE15=If That Aint It I Quit
EXTD=
EXTT0=
EXTT1=
EXTT2=
EXTT3=
EXTT4=
EXTT5=
EXTT6=
EXTT7=
EXTT8=
EXTT9=
EXTT10=
EXTT11=
EXTT12=
EXTT13=
EXTT14=
EXTT15=
PLAYORDER=
